HIERARCHY
ROOT Hips
{
	OFFSET 0.00 0.00 0.00
	CHANNELS 6 Xposition Yposition Zposition Xrotation Yrotation Zrotation
	JOINT Spine
	{
		OFFSET 0.00000 7.06766 0.00000
		CHANNELS 3 Xrotation Yrotation Zrotation
		JOINT Head
		{
			OFFSET 0.00000 15.03989 0.00000
			CHANNELS 3 Xrotation Yrotation Zrotation
			End Site
			{
				OFFSET 0.00000 4.52755 0.00000
			}
		}
		JOINT LeftShoulder
		{
			OFFSET 0.00000 10.53037 0.00000
			CHANNELS 3 Xrotation Yrotation Zrotation
			JOINT LeftArm
			{
				OFFSET 7.02886 0.00000 0.00000
				CHANNELS 3 Xrotation Yrotation Zrotation
				JOINT LeftForeArm
				{
					OFFSET 10.79770 0.00000 0.00000
					CHANNELS 3 Yrotation Zrotation Xrotation
					JOINT LeftHand
					{
						OFFSET 7.90744 0.00000 0.00000
						CHANNELS 3 Xrotation Yrotation Zrotation
						JOINT LeftHandThumb1
						{
							OFFSET 0.00000 0.00000 0.00000
							CHANNELS 3 Xrotation Zrotation Yrotation
							End Site
							{
								OFFSET 0.00000 0.00000 3.93700
							}
						}
						End Site
						{
							OFFSET 3.93700 0.00000 0.00000
						}
					}
				}
			}
		}
		JOINT RightShoulder
		{
			OFFSET 0.00000 10.53037 0.00000
			CHANNELS 3 Xrotation Yrotation Zrotation
			JOINT RightArm
			{
				OFFSET -7.02886 0.00000 0.00000
				CHANNELS 3 Xrotation Yrotation Zrotation
				JOINT RightForeArm
				{
					OFFSET -10.79770 0.00000 0.00000
					CHANNELS 3 Yrotation Zrotation Xrotation
					JOINT RightHand
					{
						OFFSET -7.90744 0.00000 0.00000
						CHANNELS 3 Xrotation Yrotation Zrotation
						JOINT RightHandThumb1
						{
							OFFSET 0.00000 0.00000 0.00000
							CHANNELS 3 Xrotation Zrotation Yrotation
							End Site
							{
								OFFSET 0.00000 0.00000 3.93700
							}
						}
						End Site
						{
							OFFSET -3.93700 0.00000 0.00000
						}
					}
				}
			}
		}
	}
	JOINT LeftUpLeg
	{
		OFFSET 4.01300 0.00000 0.00000
		CHANNELS 3 Xrotation Yrotation Zrotation
		JOINT LeftLeg
		{
			OFFSET 0.00000 -16.89976 0.00000
			CHANNELS 3 Xrotation Yrotation Zrotation
			JOINT LeftFoot
			{
				OFFSET 0.00000 -17.38918 0.00000
				CHANNELS 3 Xrotation Yrotation Zrotation
				JOINT LeftToeBase
				{
					OFFSET 0.00000 -1.27456 4.75673
					CHANNELS 3 Xrotation Yrotation Zrotation
					End Site
					{
						OFFSET 0.00000 0.00000 2.95275
					}
				}
			}
		}
	}
	JOINT RightUpLeg
	{
		OFFSET -4.01300 0.00000 0.00000
		CHANNELS 3 Xrotation Yrotation Zrotation
		JOINT RightLeg
		{
			OFFSET 0.00000 -16.89976 0.00000
			CHANNELS 3 Xrotation Yrotation Zrotation
			JOINT RightFoot
			{
				OFFSET 0.00000 -17.38918 0.00000
				CHANNELS 3 Xrotation Yrotation Zrotation
				JOINT RightToeBase
				{
					OFFSET 0.00000 -1.27456 4.75673
					CHANNELS 3 Xrotation Yrotation Zrotation
					End Site
					{
						OFFSET 0.00000 0.00000 2.95275
					}
				}
			}
		}
	}
}
MOTION
Frames: 12
Frame Time: 0.008333
 19.6944 5.4892 -20.3294 152.8200 -19.0334 136.2559 -7.3841 -16.1123 39.1489 -3.3233 -13.7444 -1.5112 -15.7958 9.6965 5.7762 21.0514 -3.3208 -81.8602 2.4835 0.0000 6.6604 -0.4739 -9.4385 -2.8877 33.1476 -0.0000 26.2537 22.3316 -26.5349 12.0194 -53.8712 -69.6937 23.1480 116.6861 0.0000 -14.3014 -1.4266 -5.2020 -15.3586 32.8623 0.0000 -24.3270 -105.1483 56.2350 -11.5566 136.7461 -0.0000 -0.0000 29.0610 21.6602 -2.0334 24.1794 -0.0000 -0.0000 29.3591 30.4808 -29.0971 131.3326 -0.0000 -0.0000 37.9261 -26.5709 -7.3450 18.6695 0.0000 -0.0000
 19.6922 5.4875 -20.3242 152.8879 -19.0393 136.2721 -7.3411 -16.1357 39.2243 -3.7024 -13.5668 -1.6440 -15.7828 9.6707 5.7088 21.1063 -3.2984 -81.8729 2.4566 0.0000 6.6830 -0.4495 -9.4110 -2.7470 33.1476 -0.0000 26.2537 22.2598 -26.5552 11.9708 -53.8351 -69.5363 23.1383 116.8078 0.0000 -14.0031 -1.4279 -5.2466 -15.2476 32.8623 0.0000 -24.3270 -105.1387 56.2339 -11.5094 136.7232 0.0000 -0.0000 29.0942 21.7121 -2.1251 24.1618 0.0000 -0.0000 29.4550 30.6073 -29.1680 131.3709 0.0000 0.0000 38.0542 -26.5938 -7.1754 18.4793 -0.0000 -0.0000
 19.6903 5.4866 -20.3196 152.9658 -19.0550 136.2808 -7.2639 -16.1597 39.3110 -4.1080 -13.4359 -1.7800 -15.8031 9.6498 5.6426 21.1800 -3.2458 -81.8706 2.4364 0.0000 6.5837 -0.4390 -9.4306 -2.6773 33.1476 -0.0000 26.2537 22.1496 -26.5447 11.9109 -53.8640 -69.3861 23.0355 116.9347 0.0000 -13.6798 -1.3927 -5.2056 -15.0011 32.8623 0.0000 -24.3270 -105.1046 56.2269 -11.4745 136.7138 0.0000 0.0000 29.0891 21.7405 -2.1321 24.0897 -0.0000 -0.0000 29.5711 30.7463 -29.2362 131.4205 -0.0000 -0.0000 38.0280 -26.4968 -7.2271 18.6699 0.0000 0.0000
 19.6888 5.4855 -20.3157 153.0284 -19.0676 136.2738 -7.2074 -16.2095 39.3981 -4.4607 -13.2622 -1.8717 -15.8208 9.6047 5.5932 21.2473 -3.0594 -81.8830 2.4461 0.0000 6.5938 -0.4331 -9.4594 -2.6333 33.1476 -0.0000 26.2537 22.2148 -26.5523 11.9102 -53.8665 -69.1858 23.1555 117.0908 0.0000 -13.3291 -1.3909 -5.2473 -14.8692 32.8623 0.0000 -24.3270 -105.0808 56.2039 -11.4520 136.7044 -0.0000 -0.0000 29.1222 21.7825 -2.2188 23.9542 0.0000 0.0000 29.6724 30.8885 -29.2890 131.4661 -0.0000 0.0000 37.9957 -26.4207 -7.3519 18.9166 -0.0000 0.0000
 19.6878 5.4852 -20.3128 153.0797 -19.0784 136.2697 -7.1603 -16.2668 39.4781 -4.8513 -13.0780 -1.9650 -15.8574 9.5735 5.5450 21.3534 -3.0406 -81.8903 2.4370 0.0000 6.4806 -0.4353 -9.4839 -2.6398 33.1476 -0.0000 26.2537 22.1939 -26.5459 11.8621 -53.8024 -69.0261 23.2516 117.2395 0.0000 -12.9492 -1.3946 -5.2897 -14.7921 32.8623 0.0000 -24.3270 -105.0549 56.1824 -11.4324 136.6987 0.0000 -0.0000 29.0988 21.7808 -2.1837 24.0640 -0.0000 -0.0000 29.7483 31.0160 -29.3283 131.4792 0.0000 0.0000 38.2049 -26.5654 -7.1135 18.6061 -0.0000 -0.0000
 19.6868 5.4861 -20.3105 153.1279 -19.0822 136.2657 -7.1356 -16.3209 39.5507 -5.2328 -12.9255 -2.0570 -15.8799 9.5333 5.4917 21.4317 -3.0090 -81.8857 2.4772 0.0000 6.4283 -0.4320 -9.4771 -2.6219 33.1476 -0.0000 26.2537 22.2021 -26.5807 11.8250 -53.6513 -68.8505 23.4947 117.3864 0.0000 -12.5222 -1.3870 -5.3018 -14.6835 32.8623 0.0000 -24.3270 -105.0455 56.1579 -11.3982 136.6866 0.0000 -0.0000 29.1308 21.8074 -2.2488 24.0453 0.0000 -0.0000 29.8393 31.1596 -29.3822 131.5127 -0.0000 -0.0000 38.2427 -26.5899 -7.1096 18.5565 0.0000 -0.0000
 19.6870 5.4872 -20.3083 153.1688 -19.0861 136.2553 -7.1160 -16.3775 39.6151 -5.5701 -12.7548 -2.1133 -15.9173 9.4735 5.4568 21.5235 -2.9720 -81.8867 2.5096 0.0000 6.3573 -0.4430 -9.4903 -2.6849 33.1476 -0.0000 26.2537 22.0528 -26.5722 11.7396 -53.5460 -68.6898 23.4766 117.5256 0.0000 -12.1747 -1.3698 -5.2978 -14.5191 32.8623 0.0000 -24.3270 -105.0358 56.1308 -11.3736 136.6904 0.0000 -0.0000 29.1050 21.7877 -2.2081 24.0462 -0.0000 0.0000 29.9225 31.2975 -29.4184 131.5557 -0.0000 -0.0000 38.1972 -26.5776 -7.2567 18.7682 -0.0000 -0.0000
 19.6881 5.4894 -20.3072 153.2007 -19.0860 136.2428 -7.1206 -16.4319 39.6607 -5.9393 -12.6379 -2.1476 -15.9323 9.4106 5.4215 21.5729 -2.8596 -81.8736 2.5660 0.0000 6.3866 -0.4636 -9.4960 -2.8081 33.1476 -0.0000 26.2537 21.9080 -26.5223 11.6798 -53.6267 -68.5398 23.2310 117.6527 0.0000 -11.8755 -1.3551 -5.3005 -14.3632 32.8623 0.0000 -24.3270 -105.0462 56.1020 -11.3365 136.7038 0.0000 -0.0000 29.0768 21.7661 -2.2267 24.0047 0.0000 -0.0000 29.9757 31.4283 -29.4471 131.5884 0.0000 -0.0000 38.3035 -26.6654 -7.2397 18.5876 -0.0000 -0.0000
 19.6905 5.4942 -20.3066 153.2311 -19.0698 136.2041 -7.1098 -16.4856 39.7469 -6.3237 -12.4980 -2.1866 -15.9741 9.3565 5.3768 21.6785 -2.8150 -81.8577 2.5804 0.0000 6.3612 -0.4875 -9.5516 -2.9356 33.1476 -0.0000 26.2537 21.8219 -26.4904 11.6339 -53.7056 -68.3763 23.1099 117.7629 0.0000 -11.5603 -1.3439 -5.3018 -14.2454 32.8623 0.0000 -24.3270 -105.0840 56.0341 -11.2814 136.7199 -0.0000 0.0000 29.0282 21.7188 -2.1451 24.0698 0.0000 -0.0000 30.0053 31.5998 -29.4471 131.6424 -0.0000 -0.0000 38.2588 -26.5840 -7.4481 18.9227 0.0000 0.0000
 19.6932 5.5012 -20.3037 153.2713 -19.0081 136.1472 -7.1183 -16.5178 39.8741 -6.6835 -12.2816 -2.2353 -15.9907 9.2826 5.3241 21.7839 -2.7692 -81.8574 2.5832 0.0000 6.2988 -0.5050 -9.5287 -3.0479 33.1476 -0.0000 26.2537 21.7091 -26.4427 11.5627 -53.7564 -68.1985 22.9469 117.8863 0.0000 -11.2876 -1.3373 -5.3200 -14.1324 32.8623 0.0000 -24.3270 -105.1999 55.9448 -11.1666 136.7376 -0.0000 0.0000 29.0092 21.6872 -2.0909 24.0870 -0.0000 -0.0000 29.9817 31.8197 -29.4454 131.7089 -0.0000 -0.0000 38.3308 -26.6047 -7.5228 18.9693 -0.0000 -0.0000
 19.6958 5.5050 -20.3048 153.3032 -19.0065 136.1256 -7.1073 -16.5836 39.9366 -7.0809 -12.1638 -2.2914 -16.0100 9.2147 5.2714 21.8791 -2.7300 -81.8305 2.6069 0.0000 6.2217 -0.5276 -9.5286 -3.1840 33.1476 -0.0000 26.2537 21.5724 -26.4304 11.5020 -53.8319 -68.0199 22.7805 118.0010 0.0000 -11.0538 -1.3262 -5.3770 -13.8770 32.8623 0.0000 -24.3270 -105.2265 55.8997 -11.1129 136.7566 0.0000 -0.0000 29.0116 21.6574 -2.1207 23.9987 0.0000 0.0000 30.0198 31.9505 -29.4545 131.7518 0.0000 0.0000 38.3946 -26.6700 -7.4519 18.8085 0.0000 0.0000
 19.6996 5.5084 -20.3063 153.3310 -19.0144 136.1081 -7.0967 -16.6543 39.9691 -7.4475 -11.9622 -2.2634 -16.0255 9.1317 5.2331 21.9751 -2.6681 -81.8165 2.6190 0.0000 6.1588 -0.5372 -9.5199 -3.2446 33.1476 -0.0000 26.2537 21.5485 -26.4384 11.4446 -53.5871 -67.9094 23.0986 118.0879 0.0000 -10.6663 -1.2897 -5.2544 -13.8116 32.8623 0.0000 -24.3270 -105.2380 55.8763 -11.0745 136.7657 0.0000 -0.0000 29.0187 21.6823 -2.1015 24.0348 -0.0000 0.0000 30.0641 32.0608 -29.4563 131.7893 -0.0000 0.0000 38.4265 -26.6722 -7.5270 19.0385 0.0000 -0.0000
